# xmcd CD database file
#
# Track frame offsets:
#	205
#	20442
#	37502
#	56167
#	68090
#	95817
#	119237
#	146852
#	174525
#	186402
#	197237
#	215737
#	227342
#
# Disc length: 3656 seconds
#
# Revision: 0
# Processed by: cddbd v1.5.2PL0 Copyright (c) Steve Scherf et al.
# Submitted via: CDex 1.70beta2
#
DISCID=c60e460d
DTITLE=Sleight Of Hand - Sleight Of Hand
DYEAR=1992
DGENRE=Jazz
TTITLE0=Outback
TTITLE1=Vibe 1
TTITLE2=Bushmen
TTITLE3=A Time For Peace
TTITLE4=Viaduct
TTITLE5=Foreign Soil
TTITLE6=Fingerprints
TTITLE7=Walking Through Moisture
TTITLE8=Botswana
TTITLE9=December 7
TTITLE10=Kang the Klingon
TTITLE11=Biffing
TTITLE12=Only When I Dream
EXTD=YEAR: 1992
EXTT0=
EXTT1=
EXTT2=
EXTT3=
EXTT4=
EXTT5=
EXTT6=
EXTT7=
EXTT8=
EXTT9=
EXTT10=
EXTT11=
EXTT12=
PLAYORDER=
